<svg width="366" height="367" xmlns="http://www.w3.org/2000/svg">
  <path id="svg_2" d="m177.110592,12.165886c-5.24,0.24 -9.8,0.6 -13.84,1.1c-3.66,0.46 -4.6,0.58 -5.54,0.74l-2.33,0.4c-13.07,2.1 -28.58,6.7 -39.94,11.83c-0.54,0.25 -1.02,0.45 -1.06,0.45c-0.44,0 -11.16,5.35 -14.17,7.08l-1.6,0.9c-3.94,2.2 -11.45,7.04 -15.1,9.74l-2.47,1.83l-2.15,1.6c-0.17,0.15 -1.23,1 -2.36,1.9c-13.26,10.54 -25.9,24.33 -35.48,38.7c-1.9,2.83 -4.3,6.64 -4.3,6.78c0,0.06 -0.17,0.32 -0.36,0.6s-0.53,0.8 -0.75,1.18c-0.2,0.4 -0.57,1.02 -0.8,1.4c-2.03,3.58 -3.05,5.5 -5.1,9.65c-7.02,14.3 -12.28,30.08 -14.8,44.55c-0.92,5.17 -1.02,5.77 -1.57,10.16c-3.8,30 0.63,61.76 12.36,88.9c0.94,2.16 0.97,2.2 1.64,1.7c3.23,-2.3 10.4,-5.53 15.33,-6.92l1.3,-0.37c0.26,-0.07 0.93,-0.24 1.5,-0.36l1.76,-0.38c0.73,-0.16 1.5,-0.3 4.75,-0.78c2.14,-0.32 11.67,-0.32 13.8,0c2.74,0.4 5.7,0.96 7.1,1.32c2.7,0.7 5.93,1.73 6.56,2.07c0.17,0.1 0.4,0.18 0.5,0.18c0.38,0 6.76,3.07 8.36,4c9.84,5.8 18.17,14.77 23.05,24.83c0.86,1.77 1.66,3.55 1.95,4.35c0.13,0.36 0.3,0.82 0.4,1.03c0.2,0.5 1.1,3.2 1.3,3.9c0.66,2.48 1.1,4.3 1.28,5.32l0.4,2.15c0.7,3.68 0.86,11 0.35,15.47c-0.32,2.9 -0.54,4.23 -1.1,6.7c-1.6,7.04 -4.3,13.3 -8.5,19.7c-1.5,2.28 -1.55,2.13 0.8,3.27c2.47,1.2 6.02,2.85 6.12,2.85c0.04,0 0.63,0.25 1.3,0.56c0.67,0.3 1.26,0.56 1.3,0.56c0.05,0 0.62,0.24 1.26,0.54c6.22,2.85 20.4,7.27 29.4,9.16c4.64,0.98 7.8,1.54 12.6,2.22c17.3,2.45 37.43,2.04 54.04,-1.12c14.38,-2.73 26.52,-6.45 38.67,-11.86l2.15,-0.95c1.47,-0.66 8.8,-4.33 10.33,-5.18l2.15,-1.2c1.73,-0.94 2.42,-1.34 2.6,-1.5l0.9,-0.53c1.8,-1 2.13,-1.2 3.14,-1.9c0.6,-0.4 1.12,-0.73 1.18,-0.73c0.35,0 8.56,-5.73 12.4,-8.66c6.8,-5.17 14.04,-11.7 20.32,-18.28c2.48,-2.6 5.06,-5.47 6.45,-7.18c0.3,-0.36 0.58,-0.7 0.64,-0.74c0.46,-0.4 5.6,-7.03 7.82,-10.07c8.4,-11.55 16.34,-26.3 21.3,-39.6c1.13,-3.03 2.05,-5.63 2.38,-6.72c0.18,-0.6 0.54,-1.74 0.8,-2.5s0.55,-1.75 0.66,-2.16l0.6,-2.06c0.52,-1.75 0.93,-3.26 1.27,-4.66l0.38,-1.5c0.24,-0.88 0.9,-3.68 1.05,-4.46l0.28,-1.3c0.37,-1.72 0.68,-3.35 1.1,-5.78c1.77,-10.13 2.53,-19.08 2.53,-29.92c0,-9.23 -0.47,-16 -1.74,-25.07c-0.4,-2.87 -1.3,-7.8 -1.9,-10.62l-0.35,-1.68c-0.2,-0.9 -0.35,-1.6 -0.74,-3.22l-0.4,-1.58c-0.32,-1.3 -0.5,-2.06 -0.7,-2.75l-0.48,-1.77l-0.46,-1.6c-0.1,-0.24 -0.28,-0.83 -0.4,-1.3s-0.47,-1.54 -0.75,-2.4l-0.8,-2.53c-2.53,-8.02 -7.8,-20.1 -12.5,-28.53c-3.25,-5.9 -8.08,-13.52 -11.1,-17.6l-1.8,-2.43c-1.3,-1.73 -5.76,-7.4 -6.04,-7.64c-0.05,-0.05 -0.34,-0.38 -0.63,-0.74c-7.68,-9.4 -19.74,-20.5 -31.33,-28.83c-2.8,-2.02 -10.56,-7.15 -10.8,-7.15c-0.03,0 -0.63,-0.34 -1.32,-0.76c-1.37,-0.83 -2.06,-1.23 -3.63,-2.1c-0.58,-0.3 -1.37,-0.75 -1.78,-1c-1.02,-0.57 -9.24,-4.7 -10.63,-5.3l-4.02,-1.8c-21.02,-9.44 -49.77,-14.73 -74,-13.62m63.28,144.46c0.95,0.26 2.17,1.5 2.48,2.52c0.33,1.12 0.33,51.12 0,52.38c-0.8,2.98 -4.5,3.58 -6.44,1.04l-0.5,-0.67l0,-52.96l0.38,-0.64c0.44,-0.72 1.6,-1.6 2.3,-1.72c0.86,-0.14 1.03,-0.13 1.78,0.08m-119.37,0.45c5,2.55 1.82,10.1 -3.53,8.36c-4.06,-1.3 -4.13,-6.43 -0.13,-8.6c0.73,-0.4 2.64,-0.27 3.65,0.25m-23.77,14.16c2.08,0.62 3.2,3.12 2.2,4.97c-0.2,0.37 -1.44,1.96 -2.78,3.53c-5.97,7.03 -7.07,8.34 -7.82,9.2c-0.43,0.53 -1.83,2.17 -3.1,3.67l-4.64,5.47l-2.53,2.97c-0.1,0.1 -0.9,1.04 -1.76,2.07c-0.85,1.03 -1.88,2.23 -2.27,2.68c-0.4,0.45 -0.7,0.9 -0.7,0.98c0,0.1 5,0.16 11.14,0.16c9.36,0 11.3,0.05 12.1,0.28c3.22,0.96 3.68,4.84 0.8,6.62c-0.5,0.3 -31.06,0.55 -32.96,0.27c-1.6,-0.23 -2.94,-2.1 -2.78,-3.83c0.1,-1 0.4,-1.45 3.22,-4.75l3.17,-3.72c3.68,-4.33 4.28,-5.03 4.38,-5.12c0.06,-0.04 0.93,-1.06 1.92,-2.26c1,-1.2 1.92,-2.3 2.05,-2.43c0.13,-0.13 0.7,-0.78 1.25,-1.45l1.12,-1.3c0.06,-0.05 0.98,-1.14 2.06,-2.42l2.35,-2.8c2.9,-3.35 4.54,-5.33 4.54,-5.45c0,-0.07 -5.03,-0.14 -11.2,-0.14c-12.68,0 -12.47,0.02 -13.78,-1.3c-1.87,-1.85 -1.14,-4.96 1.35,-5.84c1.18,-0.42 31.3,-0.45 32.68,-0.04m22.52,-0.07c1,0.27 1.74,0.85 2.27,1.76l0.45,0.76l0,37.96l-0.46,0.8c-1.36,2.32 -4.88,2.24 -6.23,-0.14c-0.5,-0.9 -0.62,-38.13 -0.12,-39.08c0.4,-0.8 1.55,-1.78 2.3,-2.02c0.92,-0.28 0.95,-0.28 1.8,-0.05m26.12,0.16c1.27,0.48 2.14,1.8 2.14,3.27c0,1.3 0.23,1.34 1.58,0.25c4.3,-3.5 11.42,-4.9 13.62,-2.7c2.6,2.6 0.82,5.9 -3.35,6.27c-3.42,0.3 -5.34,1.27 -7.86,3.97c-3.56,3.78 -4,5.97 -4,20.05c0,10.18 0.03,9.93 -1.13,10.9c-1.8,1.5 -4.62,0.87 -5.6,-1.28c-0.53,-1.2 -0.53,-37.62 0,-38.8c0.8,-1.77 2.8,-2.6 4.6,-1.94m55.72,-0.18c6.54,0.75 12.1,4.1 15.17,9.15c1.34,2.2 -0.38,5.3 -2.95,5.3c-1.53,0 -2.08,-0.33 -3.6,-2.13c-2.4,-2.8 -4.3,-4 -7.7,-4.87c-1.1,-0.28 -5.12,-0.23 -6.28,0.07c-10.62,2.82 -14.38,16.02 -6.82,23.98c5.9,6.2 15.25,5.84 20.8,-0.82c1.44,-1.75 2.37,-2.26 3.8,-2.12c2.7,0.26 4.07,3.3 2.53,5.65c-6.43,9.75 -20.73,11.77 -30.12,4.24c-6.25,-5 -9.22,-13.04 -7.77,-20.98c2,-10.92 12.22,-18.7 22.93,-17.48m83.37,0c10.07,1.1 17.82,8.58 19.33,18.65c0.55,3.7 0.1,5.2 -1.86,6.1c-0.84,0.4 -0.9,0.4 -17.15,0.4l-16.33,0l0,0.4c0,0.68 1.58,3.74 2.5,4.88c5.56,6.78 16.35,7.37 22.95,1.26c2.57,-2.38 4.74,-2.46 6.32,-0.23c2.5,3.55 -4.2,9.5 -12.63,11.17c-16.35,3.28 -30.21,-10.8 -26.18,-26.6c2.56,-10.03 12.8,-17.14 23.05,-16.02m-3.88,7.27c-3.45,0.35 -6.6,1.98 -9.04,4.7c-1.4,1.54 -3.07,4.62 -3.08,5.68c0,0.37 27.55,0.34 27.7,-0.03c0.13,-0.34 -0.8,-2.54 -1.64,-3.83c-3.02,-4.7 -8.15,-7.1 -13.95,-6.52m-226.9,77.73c-2.85,0.36 -4.14,0.58 -6.4,1.1c-1.55,0.37 -5.12,1.5 -6.1,1.94c-0.3,0.14 -0.93,0.4 -1.4,0.6c-4.7,1.86 -10.47,5.82 -14.65,10.06c-10.37,10.5 -15.38,25.76 -13.08,39.86c0.35,2.12 0.6,3.35 0.86,4.38l0.4,1.58c2.34,9.02 9.06,18.78 17.07,24.8c17.62,13.2 42.48,12.2 58.9,-2.4c5.2,-4.6 10.07,-11.36 12.18,-16.83c1,-2.57 1.6,-4.27 1.9,-5.4c5.4,-19.17 -1.5,-39.26 -17.52,-51c-1.32,-0.97 -2.6,-1.84 -2.7,-1.84c-0.06,0 -0.46,-0.23 -0.9,-0.52c-0.7,-0.48 -5,-2.64 -6.04,-3.04l-0.83,-0.34c-0.54,-0.23 -3.24,-1.13 -3.97,-1.32c-2.64,-0.7 -3.2,-0.83 -5.68,-1.28c-3.17,-0.57 -8.96,-0.75 -12.02,-0.36" fill="#5FC9F3"/>
</svg>