<svg width="366" height="367" xmlns="http://www.w3.org/2000/svg">
  <path id="svg_1" d="m170.255001,1.087576c-0.07,0.1 -1.1,0.2 -2.43,0.2s-2.35,0.07 -2.42,0.18c-0.06,0.1 -0.86,0.18 -1.77,0.18c-0.9,0 -1.7,0.1 -1.77,0.2c-0.06,0.1 -0.74,0.2 -1.5,0.2c-0.75,0 -1.42,0.07 -1.48,0.17c-0.07,0.1 -0.7,0.2 -1.4,0.2s-1.34,0.07 -1.4,0.18c-0.06,0.1 -0.57,0.18 -1.12,0.18c-0.55,0 -1.05,0.1 -1.12,0.2c-0.06,0.1 -0.57,0.18 -1.13,0.18c-0.55,0 -1,0.1 -1,0.2s-0.5,0.18 -1.13,0.18c-0.62,0 -1.12,0.08 -1.12,0.2c0,0.1 -0.42,0.17 -0.93,0.17c-0.5,0 -0.93,0.1 -0.93,0.2s-0.37,0.18 -0.83,0.18c-0.46,0 -0.9,0.08 -0.95,0.18c-0.06,0.1 -0.45,0.2 -0.85,0.2c-0.4,0 -0.74,0.08 -0.74,0.18c0,0.1 -0.4,0.2 -0.93,0.2c-0.5,0 -0.93,0.07 -0.93,0.18c0,0.1 -0.33,0.18 -0.74,0.18s-0.75,0.08 -0.75,0.17c0,0.1 -0.35,0.22 -0.78,0.27c-0.44,0.06 -1.17,0.2 -1.63,0.32c-0.47,0.1 -1.13,0.25 -1.46,0.3c-0.33,0.06 -0.65,0.18 -0.7,0.27c-0.07,0.1 -0.3,0.16 -0.56,0.16c-0.24,0 -0.5,0.1 -0.56,0.2c-0.06,0.1 -0.4,0.18 -0.74,0.18c-0.35,0 -0.68,0.1 -0.75,0.2c-0.06,0.1 -0.4,0.18 -0.74,0.18c-0.36,0 -0.7,0.08 -0.76,0.2c-0.06,0.1 -0.3,0.17 -0.56,0.17c-0.24,0 -0.5,0.1 -0.56,0.2c-0.06,0.1 -0.4,0.18 -0.75,0.18s-0.64,0.08 -0.64,0.18c0,0.1 -0.25,0.2 -0.55,0.2c-0.3,0 -0.6,0.08 -0.67,0.18c-0.05,0.1 -0.3,0.2 -0.55,0.2s-0.5,0.07 -0.55,0.18c-0.07,0.1 -0.32,0.18 -0.56,0.18c-0.25,0 -0.5,0.1 -0.56,0.2c-0.07,0.1 -0.32,0.18 -0.56,0.18s-0.5,0.08 -0.56,0.18c-0.06,0.1 -0.32,0.2 -0.56,0.2c-0.24,0 -0.5,0.07 -0.56,0.18c-0.06,0.1 -0.3,0.18 -0.56,0.18c-0.24,0 -0.5,0.1 -0.56,0.2c-0.06,0.1 -0.3,0.17 -0.56,0.17s-0.5,0.1 -0.56,0.2c-0.06,0.1 -0.27,0.18 -0.48,0.18c-0.2,0 -0.5,0.08 -0.68,0.17c-0.18,0.1 -0.58,0.27 -0.9,0.4l-0.83,0.36c-0.14,0.07 -0.66,0.25 -1.15,0.4c-0.5,0.13 -0.9,0.32 -0.9,0.4s-0.2,0.14 -0.44,0.14s-0.5,0.1 -0.56,0.2c-0.06,0.1 -0.23,0.17 -0.38,0.17s-0.78,0.25 -1.43,0.54c-0.64,0.3 -1.68,0.75 -2.3,1l-1.7,0.72c-0.35,0.14 -0.62,0.32 -0.62,0.4c0,0.08 -0.16,0.14 -0.36,0.14s-0.38,0.08 -0.38,0.2c0,0.1 -0.16,0.17 -0.37,0.17s-0.38,0.1 -0.38,0.2s-0.17,0.2 -0.37,0.2c-0.2,0 -0.38,0.07 -0.38,0.17s-0.25,0.2 -0.56,0.2c-0.3,0 -0.55,0.07 -0.55,0.17s-0.16,0.2 -0.37,0.2s-0.37,0.07 -0.37,0.18c0,0.1 -0.16,0.18 -0.37,0.18s-0.37,0.1 -0.37,0.2s-0.17,0.18 -0.37,0.18c-0.22,0 -0.38,0.08 -0.38,0.18c0,0.1 -0.17,0.2 -0.38,0.2s-0.37,0.07 -0.37,0.18c0,0.1 -0.17,0.18 -0.37,0.18s-0.37,0.1 -0.37,0.2s-0.17,0.17 -0.38,0.17s-0.37,0.08 -0.37,0.18c0,0.1 -0.17,0.2 -0.37,0.2s-0.37,0.07 -0.37,0.17s-0.16,0.2 -0.37,0.2c-0.2,0 -0.37,0.07 -0.37,0.18c0,0.1 -0.16,0.18 -0.34,0.18c-0.2,0 -0.46,0.18 -0.6,0.4c-0.15,0.2 -0.42,0.36 -0.6,0.36c-0.2,0 -0.34,0.08 -0.34,0.2c0,0.1 -0.16,0.17 -0.37,0.17s-0.37,0.1 -0.37,0.2s-0.17,0.18 -0.37,0.18c-0.2,0 -0.37,0.1 -0.37,0.2s-0.16,0.18 -0.37,0.18s-0.37,0.08 -0.37,0.18c0,0.1 -0.18,0.2 -0.38,0.2s-0.38,0.07 -0.38,0.18c0,0.1 -0.17,0.18 -0.37,0.18s-0.37,0.1 -0.37,0.2s-0.17,0.18 -0.38,0.18c-0.2,0 -0.37,0.08 -0.37,0.18c0,0.1 -0.12,0.2 -0.28,0.2s-0.28,0.07 -0.28,0.18c0,0.1 -0.18,0.18 -0.38,0.18s-0.37,0.07 -0.37,0.15c0,0.08 -0.3,0.26 -0.66,0.4c-0.36,0.14 -0.66,0.33 -0.66,0.4c0,0.1 -0.12,0.16 -0.28,0.16c-0.15,0 -0.28,0.07 -0.28,0.15c0,0.1 -0.3,0.28 -0.65,0.42c-0.36,0.14 -0.65,0.32 -0.65,0.4c0,0.1 -0.13,0.16 -0.28,0.16c-0.16,0 -0.28,0.08 -0.28,0.2c0,0.1 -0.13,0.17 -0.28,0.17c-0.15,0 -0.28,0.1 -0.28,0.2s-0.13,0.18 -0.28,0.18c-0.15,0 -0.28,0.08 -0.28,0.18c0,0.1 -0.15,0.2 -0.33,0.2c-0.18,0 -0.45,0.17 -0.6,0.37c-0.15,0.2 -0.42,0.37 -0.6,0.37s-0.33,0.1 -0.33,0.2s-0.15,0.18 -0.34,0.18c-0.18,0 -0.45,0.16 -0.6,0.37s-0.38,0.36 -0.53,0.36c-0.14,0 -0.4,0.15 -0.56,0.33c-0.16,0.17 -0.52,0.44 -0.8,0.58c-0.3,0.15 -0.52,0.33 -0.52,0.42s-0.15,0.15 -0.33,0.15s-0.45,0.17 -0.6,0.38s-0.4,0.37 -0.53,0.37c-0.15,0 -0.4,0.15 -0.57,0.33s-0.53,0.44 -0.8,0.6c-0.3,0.13 -0.52,0.32 -0.52,0.4c0,0.1 -0.12,0.16 -0.26,0.16c-0.13,0 -0.5,0.24 -0.83,0.55c-0.32,0.3 -0.68,0.56 -0.8,0.56c-0.1,0 -0.44,0.26 -0.72,0.57c-0.3,0.3 -0.63,0.56 -0.75,0.56s-0.46,0.25 -0.74,0.56c-0.3,0.3 -0.63,0.55 -0.75,0.55s-0.46,0.25 -0.75,0.55c-0.28,0.3 -0.62,0.56 -0.74,0.56c-0.13,0 -0.47,0.26 -0.76,0.56c-0.28,0.3 -0.6,0.56 -0.73,0.56c-0.1,0 -0.48,0.27 -0.82,0.6c-0.34,0.34 -0.8,0.74 -1.05,0.9c-0.23,0.15 -0.7,0.54 -1.04,0.88c-0.35,0.33 -0.7,0.6 -0.8,0.6s-0.7,0.5 -1.32,1.12c-0.62,0.62 -1.22,1.12 -1.3,1.12s-0.86,0.67 -1.7,1.5c-0.8,0.8 -1.57,1.48 -1.67,1.48c-0.2,0 -13.57,13.34 -13.97,13.98c-0.16,0.23 -0.83,1 -1.5,1.68c-0.66,0.7 -1.33,1.44 -1.5,1.67c-0.14,0.24 -0.62,0.8 -1.06,1.28c-0.43,0.46 -0.8,0.92 -0.8,1c0,0.1 -0.4,0.6 -0.92,1.1c-0.52,0.53 -0.93,1.05 -0.93,1.15c0,0.1 -0.26,0.42 -0.56,0.7c-0.3,0.3 -0.56,0.6 -0.56,0.7c0,0.07 -0.24,0.4 -0.52,0.7c-0.3,0.3 -0.72,0.86 -0.97,1.22c-0.24,0.36 -0.55,0.76 -0.68,0.9c-0.13,0.12 -0.38,0.48 -0.56,0.78c-0.18,0.3 -0.4,0.55 -0.47,0.55c-0.1,0 -0.16,0.1 -0.16,0.2c0,0.16 -0.35,0.65 -0.88,1.2c-0.13,0.14 -0.24,0.33 -0.24,0.43c0,0.1 -0.25,0.44 -0.56,0.76c-0.3,0.32 -0.55,0.67 -0.55,0.78c0,0.1 -0.25,0.45 -0.55,0.77c-0.3,0.33 -0.56,0.67 -0.56,0.76c0,0.1 -0.18,0.35 -0.4,0.57c-0.2,0.22 -0.36,0.5 -0.36,0.65c0,0.13 -0.08,0.24 -0.18,0.24c-0.1,0 -0.2,0.13 -0.2,0.28c0,0.15 -0.08,0.28 -0.18,0.28c-0.1,0 -0.18,0.1 -0.18,0.2s-0.17,0.37 -0.38,0.6c-0.2,0.2 -0.37,0.5 -0.37,0.63c0,0.15 -0.08,0.26 -0.2,0.26c-0.1,0 -0.17,0.12 -0.17,0.28s-0.1,0.28 -0.2,0.28s-0.18,0.12 -0.18,0.28c0,0.15 -0.08,0.28 -0.18,0.28c-0.1,0 -0.2,0.12 -0.2,0.28s-0.16,0.47 -0.36,0.7s-0.37,0.5 -0.37,0.63s-0.1,0.24 -0.2,0.24s-0.2,0.13 -0.2,0.28c0,0.15 -0.07,0.28 -0.17,0.28s-0.2,0.12 -0.2,0.28c0,0.15 -0.07,0.28 -0.18,0.28c-0.1,0 -0.18,0.12 -0.18,0.28s-0.06,0.28 -0.14,0.28c-0.08,0 -0.35,0.46 -0.6,1.02c-0.26,0.56 -0.54,1.03 -0.6,1.03c-0.1,0 -0.15,0.12 -0.15,0.28c0,0.15 -0.1,0.28 -0.2,0.28s-0.18,0.16 -0.18,0.37c0,0.2 -0.08,0.37 -0.18,0.37c-0.1,0 -0.2,0.15 -0.2,0.33s-0.16,0.46 -0.36,0.6c-0.2,0.15 -0.37,0.42 -0.37,0.6c0,0.2 -0.1,0.34 -0.2,0.34s-0.2,0.16 -0.2,0.37c0,0.2 -0.07,0.38 -0.17,0.38s-0.2,0.15 -0.2,0.33c0,0.2 -0.16,0.47 -0.36,0.6c-0.2,0.16 -0.38,0.43 -0.38,0.6c0,0.2 -0.1,0.35 -0.2,0.35s-0.18,0.16 -0.18,0.37s-0.08,0.37 -0.18,0.37c-0.1,0 -0.2,0.15 -0.2,0.35c0,0.2 -0.05,0.38 -0.13,0.42c-0.2,0.1 -0.97,1.63 -0.97,1.94c0,0.16 -0.08,0.27 -0.2,0.27c-0.1,0 -0.17,0.15 -0.17,0.33c0,0.2 -0.17,0.46 -0.37,0.6c-0.22,0.15 -0.4,0.42 -0.4,0.6c0,0.2 -0.07,0.34 -0.17,0.34s-0.2,0.16 -0.2,0.36c0,0.2 -0.07,0.4 -0.18,0.48c-0.1,0.06 -0.18,0.32 -0.18,0.57c0,0.25 -0.1,0.45 -0.2,0.45s-0.18,0.17 -0.18,0.37s-0.1,0.38 -0.2,0.38s-0.18,0.16 -0.18,0.37s-0.08,0.37 -0.2,0.37c-0.1,0 -0.17,0.16 -0.17,0.37c0,0.2 -0.1,0.37 -0.2,0.37s-0.17,0.17 -0.17,0.37s-0.1,0.38 -0.2,0.38s-0.18,0.17 -0.18,0.38s-0.08,0.37 -0.18,0.37c-0.1,0 -0.2,0.17 -0.2,0.37s-0.07,0.37 -0.18,0.37c-0.1,0 -0.18,0.17 -0.18,0.38c0,0.2 -0.1,0.37 -0.2,0.37s-0.18,0.12 -0.18,0.28c0,0.15 -0.2,0.7 -0.45,1.25c-0.87,1.9 -1.54,3.42 -1.78,4.06c-0.14,0.37 -0.32,0.74 -0.4,0.84c-0.1,0.1 -0.16,0.37 -0.16,0.6c0,0.24 -0.08,0.44 -0.16,0.44s-0.26,0.38 -0.4,0.85c-0.14,0.48 -0.4,1.2 -0.6,1.58c-0.2,0.4 -0.34,0.85 -0.34,1c0,0.16 -0.1,0.33 -0.2,0.4c-0.1,0.06 -0.18,0.3 -0.18,0.56c0,0.24 -0.08,0.5 -0.18,0.56c-0.1,0.06 -0.2,0.3 -0.2,0.55s-0.07,0.5 -0.17,0.56c-0.1,0.07 -0.2,0.28 -0.2,0.48c0,0.2 -0.07,0.54 -0.18,0.75l-0.38,0.74c-0.1,0.2 -0.2,0.53 -0.2,0.73c0,0.2 -0.07,0.38 -0.17,0.38s-0.2,0.22 -0.2,0.48s-0.06,0.6 -0.15,0.8c-0.28,0.53 -0.58,1.62 -0.58,2.05c0,0.22 -0.1,0.4 -0.2,0.4s-0.18,0.26 -0.18,0.57c0,0.3 -0.08,0.56 -0.18,0.56c-0.1,0 -0.2,0.28 -0.2,0.64s-0.07,0.7 -0.18,0.75c-0.1,0.07 -0.18,0.32 -0.18,0.56c0,0.26 -0.1,0.5 -0.2,0.57c-0.1,0.07 -0.18,0.36 -0.18,0.65c0,0.3 -0.08,0.6 -0.18,0.66c-0.1,0.06 -0.2,0.4 -0.2,0.75c0,0.36 -0.06,0.64 -0.15,0.64c-0.1,0 -0.23,0.3 -0.3,0.66l-0.22,1.3c-0.06,0.36 -0.2,0.7 -0.28,0.76c-0.1,0.05 -0.17,0.38 -0.17,0.72c0,0.35 -0.08,0.68 -0.18,0.75c-0.1,0.06 -0.2,0.5 -0.2,0.94c0,0.47 -0.07,0.84 -0.18,0.84c-0.1,0 -0.18,0.33 -0.18,0.74s-0.1,0.75 -0.2,0.75s-0.2,0.42 -0.2,0.93c0,0.5 -0.07,0.93 -0.17,0.93s-0.2,0.33 -0.2,0.74s-0.07,0.75 -0.17,0.75s-0.2,0.4 -0.2,0.92c0,0.5 -0.08,0.93 -0.18,0.93c-0.1,0 -0.18,0.37 -0.18,0.83c0,0.45 -0.1,0.88 -0.2,0.94c-0.1,0.06 -0.18,0.52 -0.18,1.02s-0.08,0.97 -0.18,1.03c-0.1,0.06 -0.2,0.57 -0.2,1.12c0,0.54 -0.07,1.04 -0.18,1.1c-0.1,0.07 -0.18,0.62 -0.18,1.22s-0.1,1.15 -0.2,1.2c-0.1,0.07 -0.18,0.7 -0.18,1.4s-0.08,1.34 -0.18,1.4c-0.1,0.07 -0.2,0.8 -0.2,1.6c0,0.86 -0.07,1.48 -0.17,1.48c-0.12,0 -0.2,0.75 -0.2,1.87c0,1.1 -0.07,1.86 -0.18,1.86c-0.1,0 -0.18,0.93 -0.18,2.42c0,1.5 -0.1,2.43 -0.2,2.43c-0.26,0 -0.26,26.2 0,26.37c0.1,0.07 0.2,1.1 0.2,2.42c0,1.34 0.06,2.36 0.17,2.43c0.1,0.06 0.2,0.86 0.2,1.78c0,0.98 0.07,1.66 0.18,1.66c0.1,0 0.18,0.63 0.18,1.5s0.08,1.5 0.2,1.5c0.1,0 0.17,0.57 0.17,1.37c0,0.78 0.1,1.45 0.2,1.52c0.1,0.06 0.18,0.6 0.18,1.2s0.08,1.16 0.18,1.22c0.1,0.06 0.2,0.52 0.2,1.02s0.07,0.97 0.18,1.03c0.1,0.05 0.18,0.56 0.18,1.12s0.1,1 0.2,1s0.18,0.43 0.18,0.94c0,0.52 0.08,0.94 0.18,0.94c0.1,0 0.2,0.42 0.2,0.93c0,0.5 0.07,0.93 0.18,0.93c0.1,0 0.18,0.37 0.18,0.83s0.1,0.87 0.2,0.93c0.1,0.06 0.17,0.45 0.17,0.85s0.1,0.74 0.2,0.74s0.2,0.37 0.2,0.82s0.07,0.88 0.17,0.95c0.1,0.05 0.2,0.43 0.2,0.84c0,0.4 0.07,0.73 0.18,0.73c0.1,0 0.18,0.34 0.18,0.75s0.1,0.74 0.2,0.74s0.18,0.3 0.18,0.64s0.1,0.7 0.2,0.76c0.1,0.06 0.18,0.36 0.18,0.65c0,0.3 0.08,0.6 0.18,0.66c0.1,0.07 0.2,0.32 0.2,0.57c0,0.24 0.08,0.5 0.18,0.55c0.1,0.07 0.18,0.4 0.18,0.76c0,0.35 0.1,0.64 0.2,0.64s0.18,0.25 0.18,0.56c0,0.3 0.08,0.56 0.18,0.56c0.1,0 0.2,0.34 0.2,0.75c0,0.4 0.07,0.74 0.18,0.74c0.1,0 0.18,0.24 0.18,0.55c0,0.3 0.1,0.56 0.2,0.56s0.18,0.2 0.18,0.42c0,0.43 0.3,1.5 0.58,2.06c0.1,0.18 0.16,0.45 0.16,0.6s0.08,0.46 0.2,0.66l0.36,0.74c0.1,0.2 0.2,0.54 0.2,0.74s0.07,0.4 0.17,0.48c0.1,0.06 0.18,0.3 0.18,0.55s0.08,0.5 0.2,0.56c0.1,0.08 0.17,0.33 0.17,0.57s0.1,0.5 0.2,0.56c0.1,0.07 0.17,0.28 0.17,0.48c0,0.2 0.08,0.52 0.17,0.7c0.08,0.18 0.26,0.57 0.38,0.88c0.13,0.3 0.3,0.7 0.4,0.88c0.1,0.18 0.16,0.42 0.16,0.53c0,0.1 0.17,0.53 0.38,0.96c0.2,0.42 0.37,0.9 0.37,1.1c0,0.17 0.07,0.37 0.17,0.44c0.1,0.06 0.2,0.23 0.2,0.37s0.25,0.83 0.57,1.53c1.45,3.2 1.95,4.2 2.26,4.47c0.18,0.17 0.33,0.4 0.33,0.52c0,0.1 0.24,0.44 0.54,0.72l0.55,0.52l-1.9,1.92c-2,2.02 -3.45,3.65 -3.74,4.17c-0.1,0.17 -0.23,0.35 -0.3,0.4c-0.24,0.17 -3.16,4.4 -3.16,4.57c0,0.07 -0.18,0.36 -0.38,0.66c-0.6,0.82 -2.6,4.78 -2.6,5.1c0,0.16 -0.1,0.3 -0.2,0.3s-0.18,0.16 -0.18,0.37s-0.06,0.37 -0.14,0.37c-0.08,0 -0.25,0.3 -0.37,0.65l-0.47,1.3c-0.13,0.36 -0.3,0.66 -0.37,0.66s-0.13,0.26 -0.13,0.57c0,0.3 -0.1,0.56 -0.2,0.56s-0.17,0.25 -0.17,0.56c0,0.3 -0.1,0.54 -0.2,0.54s-0.18,0.26 -0.18,0.56c0,0.3 -0.08,0.56 -0.18,0.56c-0.1,0 -0.2,0.25 -0.2,0.56c0,0.3 -0.07,0.56 -0.18,0.56c-0.1,0 -0.18,0.34 -0.18,0.75c0,0.4 -0.1,0.74 -0.2,0.74s-0.18,0.34 -0.18,0.75s-0.08,0.74 -0.18,0.74c-0.1,0 -0.2,0.34 -0.2,0.75c0,0.42 -0.07,0.75 -0.17,0.75s-0.2,0.42 -0.2,0.93c0,0.5 -0.07,0.97 -0.18,1.03c-0.1,0.08 -0.18,0.62 -0.18,1.22s-0.1,1.15 -0.2,1.2c-0.26,0.17 -0.26,15.5 0,15.67c0.1,0.05 0.2,0.64 0.2,1.3c0,0.65 0.07,1.24 0.17,1.3c0.1,0.06 0.2,0.44 0.2,0.84s0.07,0.78 0.18,0.84c0.1,0.06 0.18,0.4 0.18,0.74s0.1,0.7 0.2,0.75c0.1,0.06 0.17,0.4 0.17,0.75c0,0.34 0.1,0.68 0.2,0.74c0.1,0.06 0.18,0.4 0.18,0.75s0.08,0.7 0.18,0.75c0.1,0.07 0.2,0.4 0.2,0.76s0.07,0.65 0.18,0.65c0.1,0 0.18,0.25 0.18,0.55c0,0.3 0.1,0.6 0.2,0.66c0.1,0.07 0.18,0.28 0.18,0.48c0,0.2 0.07,0.5 0.16,0.7c0.1,0.17 0.27,0.56 0.4,0.87c0.12,0.32 0.3,0.72 0.4,0.9c0.08,0.17 0.15,0.45 0.15,0.6s0.1,0.28 0.2,0.28s0.2,0.17 0.2,0.38c0,0.2 0.07,0.37 0.17,0.37s0.2,0.2 0.2,0.45s0.07,0.5 0.18,0.57c0.1,0.07 0.18,0.28 0.18,0.48c0,0.2 0.1,0.36 0.2,0.36s0.18,0.15 0.18,0.35c0,0.2 0.07,0.38 0.15,0.42c0.08,0.03 0.38,0.52 0.66,1.1c0.66,1.3 1.08,2.02 1.5,2.48c0.17,0.2 0.32,0.48 0.32,0.62c0,0.13 0.08,0.24 0.18,0.24c0.1,0 0.2,0.12 0.2,0.26c0,0.13 0.16,0.42 0.36,0.64c0.2,0.22 0.37,0.47 0.37,0.55c0,0.08 0.2,0.4 0.47,0.7c0.26,0.3 0.47,0.6 0.47,0.68s0.2,0.36 0.46,0.6c0.26,0.27 0.47,0.55 0.47,0.64s0.3,0.48 0.65,0.87c0.36,0.4 0.65,0.77 0.65,0.84c0,0.3 8.28,8.4 8.57,8.4c0.12,0 0.63,0.42 1.12,0.93c0.5,0.52 1.02,0.94 1.15,0.94c0.14,0 0.37,0.17 0.52,0.37c0.15,0.22 0.4,0.4 0.56,0.4s0.4,0.15 0.56,0.36c0.14,0.2 0.4,0.37 0.55,0.37c0.16,0 0.4,0.17 0.56,0.38c0.16,0.2 0.4,0.38 0.54,0.38s0.4,0.15 0.57,0.34c0.17,0.18 0.43,0.4 0.6,0.46c0.14,0.06 0.7,0.37 1.2,0.68c1.56,0.94 3.05,1.7 3.35,1.7c0.15,0 0.28,0.07 0.28,0.17s0.17,0.2 0.38,0.2c0.2,0 0.38,0.07 0.38,0.18c0,0.1 0.17,0.2 0.37,0.2s0.37,0.06 0.37,0.14s0.42,0.27 0.94,0.4c0.5,0.15 0.93,0.33 0.93,0.42c0,0.08 0.24,0.15 0.55,0.15c0.3,0 0.56,0.1 0.56,0.2s0.26,0.18 0.57,0.18c0.3,0 0.55,0.1 0.55,0.2s0.2,0.18 0.43,0.18c0.24,0 0.5,0.06 0.6,0.15c0.1,0.1 0.56,0.27 1.02,0.4c0.47,0.13 1,0.3 1.17,0.4c0.18,0.1 0.57,0.17 0.87,0.17c0.3,0 0.6,0.1 0.68,0.2c0.06,0.1 0.4,0.18 0.74,0.18c0.35,0 0.7,0.08 0.75,0.18c0.06,0.1 0.44,0.2 0.84,0.2s0.78,0.07 0.85,0.18c0.06,0.1 0.52,0.2 1.02,0.2s0.96,0.08 1.03,0.18c0.06,0.1 0.73,0.18 1.5,0.18c0.74,0 1.42,0.1 1.48,0.2c0.16,0.25 12.52,0.25 12.67,0c0.07,-0.1 0.74,-0.2 1.5,-0.2c0.75,0 1.42,-0.08 1.5,-0.18c0.05,-0.1 0.5,-0.2 1,-0.2s0.97,-0.07 1.04,-0.17c0.05,-0.1 0.43,-0.18 0.82,-0.18s0.78,-0.08 0.84,-0.2c0.07,-0.1 0.4,-0.17 0.75,-0.17c0.36,0 0.7,-0.1 0.75,-0.2c0.07,-0.1 0.36,-0.18 0.66,-0.18c0.3,0 0.6,-0.08 0.66,-0.18c0.06,-0.12 0.36,-0.2 0.66,-0.2c0.3,0 0.55,-0.08 0.55,-0.2c0,-0.1 0.18,-0.17 0.4,-0.17c0.4,0 1.48,-0.3 2.02,-0.55c0.15,-0.08 0.67,-0.25 1.16,-0.4s0.88,-0.3 0.88,-0.36c0,-0.07 0.42,-0.23 0.94,-0.37c0.5,-0.14 0.93,-0.32 0.93,-0.4s0.18,-0.16 0.38,-0.16s0.37,-0.1 0.37,-0.2s0.17,-0.18 0.38,-0.18c0.2,0 0.37,-0.08 0.37,-0.2c0,-0.1 0.13,-0.17 0.28,-0.17c0.3,0 2.53,-1.07 2.7,-1.3c0.08,-0.1 0.56,-0.37 1.77,-1.02c0.2,-0.1 0.5,-0.35 0.67,-0.53c0.17,-0.18 0.45,-0.32 0.6,-0.32c0.18,0 0.32,-0.07 0.32,-0.16c0,-0.08 0.23,-0.27 0.5,-0.42c0.3,-0.14 0.7,-0.4 0.88,-0.6c0.2,-0.17 0.46,-0.3 0.57,-0.3c0.1,0 0.3,-0.18 0.46,-0.4c0.15,-0.2 0.37,-0.36 0.5,-0.36s0.68,-0.42 1.2,-0.93c0.55,-0.5 1.06,-0.92 1.14,-0.92s0.65,-0.5 1.28,-1.12c0.62,-0.62 1.25,-1.12 1.4,-1.12c0.14,0 0.26,-0.1 0.26,-0.2s0.4,0.23 0.92,0.75c0.5,0.5 1.03,0.93 1.17,0.93c0.14,0 0.37,0.17 0.52,0.37c0.15,0.2 0.42,0.38 0.6,0.38s0.33,0.08 0.33,0.18c0,0.1 0.17,0.2 0.37,0.2s0.38,0.07 0.38,0.18s0.16,0.18 0.37,0.18s0.37,0.1 0.37,0.2s0.17,0.17 0.37,0.17s0.38,0.08 0.38,0.18c0,0.1 0.17,0.2 0.37,0.2c0.2,0 0.36,0.07 0.36,0.17s0.17,0.2 0.38,0.2s0.37,0.07 0.37,0.18c0,0.1 0.26,0.18 0.57,0.18c0.3,0 0.56,0.1 0.56,0.2s0.16,0.2 0.37,0.2s0.37,0.07 0.37,0.17s0.17,0.2 0.38,0.2c0.2,0 0.37,0.07 0.37,0.18c0,0.1 0.17,0.18 0.37,0.18s0.36,0.1 0.36,0.2s0.17,0.18 0.38,0.18s0.37,0.1 0.37,0.2s0.26,0.18 0.57,0.18c0.3,0 0.56,0.08 0.56,0.18c0,0.1 0.17,0.2 0.37,0.2c0.2,0 0.37,0.07 0.37,0.18c0,0.1 0.1,0.18 0.2,0.18c0.13,0 0.85,0.3 1.6,0.66c0.78,0.35 1.47,0.65 1.54,0.65c0.08,0 0.5,0.17 0.92,0.37c0.42,0.2 0.84,0.37 0.93,0.37c0.1,0 0.5,0.17 0.93,0.38c0.42,0.2 0.9,0.37 1.05,0.37s0.33,0.08 0.4,0.2c0.06,0.1 0.3,0.17 0.55,0.17c0.25,0 0.5,0.08 0.56,0.18c0.06,0.1 0.32,0.2 0.57,0.2s0.47,0.07 0.47,0.17s0.25,0.2 0.55,0.2c0.3,0 0.56,0.07 0.56,0.17s0.26,0.2 0.56,0.2c0.3,0 0.56,0.06 0.56,0.14s0.43,0.27 0.95,0.4c0.52,0.15 0.98,0.34 1.03,0.42c0.05,0.08 0.3,0.15 0.54,0.15s0.5,0.08 0.56,0.2c0.06,0.1 0.3,0.17 0.56,0.17c0.24,0 0.5,0.1 0.56,0.2c0.06,0.1 0.35,0.17 0.65,0.17c0.3,0 0.6,0.1 0.65,0.2c0.06,0.1 0.36,0.18 0.65,0.18c0.3,0 0.6,0.08 0.66,0.18c0.07,0.1 0.32,0.2 0.56,0.2c0.25,0 0.5,0.07 0.56,0.18c0.07,0.1 0.33,0.2 0.58,0.2c0.25,0 0.6,0.07 0.78,0.16c0.54,0.27 1.63,0.58 2.05,0.58c0.22,0 0.44,0.08 0.5,0.18c0.07,0.1 0.4,0.2 0.76,0.2c0.35,0 0.64,0.08 0.64,0.18c0,0.1 0.33,0.2 0.74,0.2s0.75,0.07 0.75,0.17s0.33,0.2 0.74,0.2c0.4,0 0.75,0.07 0.75,0.17s0.33,0.2 0.73,0.2c0.4,0 0.8,0.07 0.85,0.18c0.07,0.1 0.5,0.18 0.95,0.18c0.45,0 0.82,0.1 0.82,0.2s0.34,0.18 0.75,0.18c0.4,0 0.74,0.08 0.74,0.18c0,0.1 0.42,0.2 0.94,0.2c0.5,0 0.93,0.07 0.93,0.18c0,0.1 0.33,0.18 0.73,0.18c0.4,0 0.8,0.1 0.85,0.2c0.08,0.1 0.5,0.17 0.95,0.17c0.44,0 0.86,0.08 0.93,0.18c0.06,0.1 0.56,0.2 1.12,0.2c0.55,0 1.05,0.07 1.1,0.17c0.08,0.1 0.58,0.2 1.13,0.2c0.55,0 1.06,0.07 1.12,0.18c0.06,0.1 0.57,0.18 1.12,0.18c0.55,0 1.05,0.1 1.12,0.2c0.05,0.1 0.64,0.2 1.3,0.2c0.65,0 1.23,0.07 1.3,0.17c0.06,0.1 0.73,0.2 1.5,0.2c0.74,0 1.42,0.07 1.48,0.18c0.06,0.1 0.9,0.18 1.86,0.18c0.97,0 1.8,0.1 1.87,0.2c0.07,0.1 1.13,0.18 2.53,0.18c1.5,0 2.42,0.08 2.42,0.2c0,0.25 24.92,0.1 28.33,-0.18c1.38,-0.1 3.27,-0.25 4.2,-0.3c0.9,-0.07 1.75,-0.2 1.85,-0.3c0.1,-0.08 0.78,-0.16 1.52,-0.16c0.75,0 1.4,-0.08 1.47,-0.2c0.06,-0.1 0.65,-0.17 1.3,-0.17c0.66,0 1.24,-0.1 1.3,-0.2c0.07,-0.1 0.66,-0.2 1.32,-0.2c0.68,0 1.2,-0.07 1.2,-0.17s0.5,-0.2 1.12,-0.2c0.62,0 1.12,-0.07 1.12,-0.18c0,-0.1 0.42,-0.18 0.93,-0.18c0.53,0 0.94,-0.1 0.94,-0.2s0.5,-0.18 1.12,-0.18c0.62,0 1.12,-0.1 1.12,-0.2s0.33,-0.18 0.74,-0.18c0.4,0 0.78,-0.08 0.85,-0.18c0.06,-0.1 0.48,-0.2 0.93,-0.2c0.45,0 0.87,-0.07 0.93,-0.18c0.06,-0.1 0.5,-0.18 0.94,-0.18c0.46,0 0.83,-0.1 0.83,-0.2s0.33,-0.18 0.73,-0.18c0.4,0 0.8,-0.08 0.85,-0.18c0.07,-0.1 0.4,-0.2 0.75,-0.2s0.68,-0.07 0.75,-0.18c0.06,-0.1 0.4,-0.18 0.74,-0.18c0.35,0 0.68,-0.1 0.75,-0.2c0.06,-0.1 0.35,-0.17 0.65,-0.17c0.3,0 0.6,-0.1 0.65,-0.2c0.07,-0.1 0.4,-0.2 0.76,-0.2s0.64,-0.07 0.64,-0.18c0,-0.1 0.3,-0.18 0.64,-0.18c0.36,0 0.7,-0.08 0.75,-0.17c0.06,-0.1 0.4,-0.2 0.76,-0.28l1.32,-0.23c0.36,-0.07 0.65,-0.2 0.65,-0.28c0,-0.1 0.25,-0.18 0.55,-0.18c0.3,0 0.6,-0.08 0.66,-0.2c0.07,-0.1 0.36,-0.17 0.65,-0.17c0.3,0 0.6,-0.1 0.66,-0.2c0.05,-0.1 0.3,-0.18 0.52,-0.18s0.5,-0.06 0.6,-0.15c0.1,-0.08 0.8,-0.34 1.57,-0.58c0.76,-0.23 1.53,-0.5 1.7,-0.6c0.2,-0.08 0.46,-0.16 0.62,-0.16c0.15,0 0.43,-0.08 0.6,-0.17c0.2,-0.1 0.88,-0.35 1.54,-0.58c0.67,-0.22 1.3,-0.47 1.4,-0.56c0.1,-0.1 0.32,-0.17 0.5,-0.17c0.2,0 0.34,-0.1 0.34,-0.2s0.25,-0.18 0.56,-0.18c0.3,0 0.56,-0.08 0.56,-0.2c0,-0.1 0.2,-0.17 0.45,-0.17s0.5,-0.1 0.57,-0.2c0.07,-0.1 0.24,-0.18 0.4,-0.18c0.15,0 0.62,-0.16 1.04,-0.37c0.43,-0.2 0.9,-0.37 1.02,-0.37c0.14,0 0.25,-0.1 0.25,-0.2s0.1,-0.17 0.22,-0.17c0.42,0 2.76,-0.97 2.76,-1.14c0,-0.1 0.12,-0.17 0.27,-0.17c0.15,0 0.57,-0.17 0.94,-0.37c0.36,-0.2 0.83,-0.37 1.03,-0.37s0.37,-0.08 0.37,-0.18c0,-0.1 0.16,-0.2 0.36,-0.2s0.4,-0.07 0.48,-0.17c0.06,-0.1 0.27,-0.2 0.47,-0.2c0.2,0 0.37,-0.07 0.37,-0.18s0.1,-0.18 0.26,-0.18c0.3,0 1.85,-0.8 1.94,-1c0.03,-0.07 0.26,-0.13 0.5,-0.13s0.5,-0.1 0.56,-0.2c0.06,-0.1 0.27,-0.18 0.47,-0.18c0.2,0 0.36,-0.1 0.36,-0.2c0.02,-0.1 0.14,-0.18 0.3,-0.18c0.15,0 0.27,-0.08 0.27,-0.18s0.13,-0.2 0.28,-0.2c0.16,0 0.28,-0.07 0.28,-0.18c0,-0.1 0.2,-0.18 0.46,-0.18c0.24,0 0.5,-0.1 0.56,-0.2c0.06,-0.1 0.28,-0.18 0.48,-0.18c0.2,0 0.36,-0.08 0.36,-0.18c0,-0.1 0.1,-0.2 0.24,-0.2c0.14,0 0.43,-0.16 0.65,-0.36c0.2,-0.2 0.52,-0.38 0.67,-0.38c0.16,0 0.3,-0.08 0.3,-0.18c0,-0.1 0.16,-0.2 0.36,-0.2c0.2,0 0.38,-0.07 0.38,-0.18c0,-0.1 0.16,-0.18 0.34,-0.18c0.18,0 0.45,-0.17 0.6,-0.37s0.4,-0.38 0.6,-0.38c0.17,0 0.68,-0.22 1.12,-0.48c0.44,-0.26 0.94,-0.52 1.12,-0.58c0.18,-0.06 0.33,-0.18 0.33,-0.27c0,-0.1 0.17,-0.17 0.38,-0.17s0.37,-0.07 0.37,-0.16c0,-0.1 0.15,-0.2 0.33,-0.27c0.42,-0.14 1.33,-0.7 1.8,-1.1c0.2,-0.2 0.48,-0.33 0.6,-0.33c0.15,0 0.26,-0.1 0.26,-0.2s0.14,-0.17 0.33,-0.17c0.18,0 0.45,-0.17 0.6,-0.38c0.14,-0.2 0.4,-0.38 0.6,-0.38c0.18,0 0.33,-0.08 0.33,-0.2c0,-0.1 0.15,-0.17 0.33,-0.17c0.18,0 0.45,-0.17 0.6,-0.38c0.15,-0.2 0.42,-0.37 0.6,-0.37s0.33,-0.08 0.33,-0.2c0,-0.1 0.15,-0.17 0.33,-0.17s0.45,-0.17 0.6,-0.38c0.14,-0.2 0.38,-0.37 0.53,-0.37s0.4,-0.15 0.56,-0.33c0.16,-0.18 0.52,-0.44 0.8,-0.6c0.3,-0.13 0.52,-0.32 0.52,-0.4s0.15,-0.16 0.33,-0.16s0.45,-0.18 0.6,-0.38c0.15,-0.2 0.35,-0.37 0.46,-0.38c0.12,0 0.44,-0.2 0.74,-0.46c0.3,-0.25 0.7,-0.5 0.88,-0.57c0.2,-0.05 0.35,-0.17 0.35,-0.26s0.17,-0.2 0.38,-0.28c0.2,-0.07 0.58,-0.32 0.83,-0.57c0.25,-0.26 0.55,-0.46 0.67,-0.46s0.45,-0.26 0.73,-0.56c0.3,-0.3 0.63,-0.56 0.75,-0.56s0.46,-0.25 0.74,-0.56c0.3,-0.3 0.63,-0.56 0.75,-0.56s0.46,-0.25 0.74,-0.56c0.3,-0.3 0.63,-0.56 0.75,-0.56s0.47,-0.25 0.76,-0.56c0.28,-0.3 0.6,-0.56 0.72,-0.56s0.64,-0.42 1.16,-0.93c0.52,-0.5 1.03,-0.93 1.13,-0.93c0.1,0 0.37,-0.2 0.6,-0.42c0.58,-0.56 1.22,-1.07 1.32,-1.07c0.08,0 0.66,-0.5 1.64,-1.4c0.22,-0.2 0.87,-0.74 1.43,-1.2c0.56,-0.46 1.32,-1.13 1.68,-1.5c0.36,-0.35 1.1,-1.04 1.68,-1.5c0.56,-0.5 1.78,-1.65 2.7,-2.6l5.82,-5.9c2.28,-2.28 4.15,-4.25 4.15,-4.35c0,-0.1 0.67,-0.86 1.5,-1.67c0.8,-0.8 1.48,-1.57 1.48,-1.7c0,-0.1 0.42,-0.6 0.93,-1.1c0.53,-0.5 0.95,-1 0.95,-1.1c0,-0.1 0.5,-0.7 1.12,-1.35c0.6,-0.64 1.1,-1.24 1.1,-1.33c0,-0.1 0.27,-0.4 0.57,-0.7c0.3,-0.28 0.56,-0.62 0.56,-0.74s0.25,-0.46 0.56,-0.74c0.3,-0.3 0.56,-0.63 0.56,-0.75s0.25,-0.46 0.56,-0.75c0.3,-0.28 0.56,-0.62 0.56,-0.74s0.25,-0.46 0.56,-0.75c0.3,-0.28 0.56,-0.62 0.56,-0.74s0.25,-0.47 0.56,-0.76c0.3,-0.3 0.56,-0.62 0.56,-0.74c0,-0.13 0.25,-0.46 0.56,-0.75c0.3,-0.3 0.56,-0.64 0.56,-0.78s0.17,-0.38 0.37,-0.52c0.2,-0.15 0.38,-0.38 0.38,-0.5c0,-0.14 0.08,-0.25 0.18,-0.25c0.1,0 0.2,-0.13 0.2,-0.28c0,-0.15 0.07,-0.28 0.18,-0.28s0.2,-0.12 0.2,-0.28s0.08,-0.28 0.18,-0.28c0.1,0 0.2,-0.12 0.2,-0.28c0,-0.15 0.07,-0.28 0.17,-0.28s0.2,-0.15 0.2,-0.33c0,-0.2 0.16,-0.46 0.36,-0.6s0.4,-0.4 0.4,-0.52c0,-0.13 0.07,-0.23 0.17,-0.23s0.2,-0.13 0.2,-0.28c0,-0.16 0.07,-0.28 0.18,-0.28c0.1,0 0.18,-0.14 0.18,-0.3c0,-0.15 0.1,-0.27 0.2,-0.27s0.18,-0.13 0.18,-0.28c0,-0.16 0.1,-0.28 0.2,-0.28s0.18,-0.16 0.18,-0.36c0,-0.2 0.06,-0.37 0.14,-0.4c0.18,-0.1 2.22,-3.2 2.5,-3.8c0.12,-0.26 0.3,-0.46 0.37,-0.46s0.15,-0.13 0.15,-0.3c0,-0.15 0.17,-0.46 0.37,-0.68c0.2,-0.22 0.37,-0.5 0.37,-0.64s0.08,-0.25 0.18,-0.25c0.1,0 0.2,-0.17 0.2,-0.37c0,-0.2 0.06,-0.37 0.15,-0.37s0.27,-0.26 0.4,-0.56c0.12,-0.3 0.3,-0.56 0.4,-0.56s0.16,-0.16 0.16,-0.37c0,-0.2 0.07,-0.37 0.17,-0.37s0.2,-0.17 0.2,-0.37c0,-0.22 0.06,-0.38 0.14,-0.38c0.1,0 0.36,-0.42 0.6,-0.93c0.27,-0.52 0.53,-0.94 0.6,-0.95c0.1,0 0.15,-0.17 0.15,-0.37s0.1,-0.37 0.2,-0.37s0.17,-0.16 0.17,-0.37s0.1,-0.37 0.2,-0.37s0.18,-0.17 0.18,-0.37c0,-0.22 0.08,-0.38 0.2,-0.38s0.17,-0.17 0.17,-0.38s0.1,-0.37 0.2,-0.37s0.18,-0.16 0.18,-0.36c0,-0.18 0.06,-0.37 0.14,-0.4c0.2,-0.1 0.97,-1.64 0.97,-1.95c0,-0.14 0.08,-0.26 0.18,-0.26c0.1,0 0.2,-0.18 0.2,-0.4s0.07,-0.36 0.18,-0.36s0.18,-0.17 0.18,-0.37s0.1,-0.37 0.2,-0.37s0.2,-0.17 0.2,-0.38s0.07,-0.37 0.17,-0.37s0.2,-0.17 0.2,-0.37c0,-0.2 0.07,-0.37 0.18,-0.37c0.1,0 0.18,-0.16 0.18,-0.37s0.1,-0.37 0.2,-0.37s0.18,-0.25 0.18,-0.56c0,-0.3 0.07,-0.56 0.15,-0.56c0.17,0 0.6,-0.9 0.6,-1.25c0,-0.14 0.1,-0.25 0.2,-0.25s0.18,-0.17 0.18,-0.37s0.08,-0.38 0.18,-0.38c0.12,0 0.2,-0.16 0.2,-0.36c0,-0.2 0.08,-0.4 0.2,-0.47c0.1,-0.07 0.17,-0.32 0.17,-0.57s0.1,-0.46 0.2,-0.46s0.18,-0.17 0.18,-0.37c0,-0.2 0.08,-0.37 0.18,-0.37s0.2,-0.17 0.2,-0.37c0,-0.2 0.08,-0.4 0.18,-0.47c0.1,-0.07 0.2,-0.32 0.2,-0.57c0,-0.26 0.08,-0.47 0.18,-0.47c0.1,0 0.2,-0.16 0.2,-0.36c0,-0.2 0.07,-0.4 0.18,-0.48c0.1,-0.07 0.18,-0.33 0.18,-0.58c0,-0.25 0.1,-0.45 0.2,-0.45s0.18,-0.25 0.18,-0.56c0,-0.3 0.08,-0.55 0.18,-0.55s0.2,-0.16 0.2,-0.36c0,-0.2 0.07,-0.43 0.18,-0.5c0.1,-0.05 0.18,-0.27 0.18,-0.47c0,-0.2 0.1,-0.36 0.2,-0.36s0.18,-0.2 0.18,-0.45s0.08,-0.5 0.2,-0.57c0.1,-0.07 0.17,-0.32 0.17,-0.56c0,-0.26 0.1,-0.5 0.2,-0.57c0.1,-0.06 0.2,-0.32 0.2,-0.56s0.07,-0.5 0.17,-0.56c0.1,-0.05 0.2,-0.27 0.2,-0.47c0,-0.2 0.07,-0.53 0.18,-0.73l0.37,-0.75c0.1,-0.2 0.2,-0.53 0.2,-0.74c0,-0.2 0.07,-0.37 0.17,-0.37s0.18,-0.24 0.18,-0.54c0,-0.32 0.08,-0.6 0.2,-0.68c0.1,-0.06 0.17,-0.4 0.17,-0.75c0,-0.36 0.1,-0.65 0.2,-0.65s0.18,-0.25 0.18,-0.55c0,-0.3 0.08,-0.56 0.18,-0.56c0.12,0 0.2,-0.25 0.2,-0.55c0,-0.3 0.08,-0.56 0.2,-0.56s0.17,-0.35 0.17,-0.76c0,-0.4 0.1,-0.74 0.2,-0.74s0.18,-0.26 0.18,-0.56c0,-0.3 0.08,-0.56 0.18,-0.56c0.1,0 0.2,-0.25 0.2,-0.55c0,-0.3 0.08,-0.6 0.18,-0.66s0.2,-0.4 0.2,-0.76c0,-0.34 0.08,-0.63 0.18,-0.63c0.1,0 0.2,-0.34 0.2,-0.75c0,-0.4 0.07,-0.74 0.18,-0.74c0.1,0 0.18,-0.34 0.18,-0.75c0,-0.4 0.1,-0.74 0.2,-0.74s0.18,-0.35 0.18,-0.76c0,-0.4 0.08,-0.74 0.18,-0.74s0.2,-0.34 0.2,-0.75c0,-0.4 0.07,-0.75 0.18,-0.75s0.18,-0.33 0.18,-0.74s0.1,-0.75 0.2,-0.75s0.18,-0.4 0.18,-0.92c0,-0.5 0.08,-0.93 0.18,-0.93s0.2,-0.42 0.2,-0.93c0,-0.52 0.08,-0.93 0.18,-0.93s0.2,-0.4 0.2,-0.84s0.07,-0.88 0.17,-0.95c0.1,-0.05 0.2,-0.43 0.2,-0.82s0.07,-0.78 0.18,-0.84c0.1,-0.07 0.18,-0.53 0.18,-1.04c0,-0.5 0.1,-0.92 0.2,-0.92s0.18,-0.5 0.18,-1.12c0,-0.62 0.1,-1.12 0.2,-1.12s0.18,-0.52 0.18,-1.2c0,-0.66 0.08,-1.25 0.2,-1.3c0.1,-0.08 0.17,-0.66 0.17,-1.32c0,-0.65 0.1,-1.24 0.2,-1.3c0.1,-0.07 0.18,-0.78 0.18,-1.6c0,-0.86 0.07,-1.48 0.18,-1.48c0.13,0 0.2,-0.74 0.2,-1.86s0.08,-1.87 0.2,-1.87c0.1,0 0.17,-0.98 0.17,-2.6c0,-1.6 0.08,-2.6 0.2,-2.6c0.1,0 0.18,-4.38 0.18,-12.76c0,-8.3 -0.07,-12.8 -0.2,-12.87c-0.1,-0.07 -0.18,-1.12 -0.18,-2.53c0,-1.5 -0.07,-2.4 -0.18,-2.4c-0.12,0 -0.2,-0.76 -0.2,-1.88c0,-1.12 -0.07,-1.86 -0.2,-1.86c-0.1,0 -0.17,-0.62 -0.17,-1.5c0,-0.86 -0.08,-1.48 -0.2,-1.48c-0.1,0 -0.18,-0.56 -0.18,-1.3c0,-0.75 -0.08,-1.3 -0.18,-1.3c-0.1,0 -0.2,-0.54 -0.2,-1.2c0,-0.67 -0.07,-1.27 -0.18,-1.33c-0.1,-0.07 -0.2,-0.58 -0.2,-1.14c0,-0.56 -0.08,-1 -0.18,-1c-0.1,0 -0.2,-0.5 -0.2,-1.13c0,-0.62 -0.07,-1.12 -0.17,-1.12s-0.2,-0.4 -0.2,-0.92c0,-0.5 -0.07,-0.93 -0.18,-0.93c-0.1,0 -0.18,-0.42 -0.18,-0.94c0,-0.5 -0.1,-0.92 -0.2,-0.92s-0.2,-0.42 -0.2,-0.93c0,-0.5 -0.07,-0.93 -0.18,-0.93s-0.18,-0.34 -0.18,-0.75c0,-0.4 -0.1,-0.74 -0.2,-0.74s-0.18,-0.34 -0.18,-0.75s-0.08,-0.74 -0.18,-0.74s-0.2,-0.38 -0.2,-0.83c0,-0.45 -0.07,-0.87 -0.18,-0.93c-0.1,-0.07 -0.18,-0.4 -0.18,-0.75s-0.1,-0.68 -0.2,-0.75c-0.1,-0.06 -0.18,-0.35 -0.18,-0.65c0,-0.3 -0.08,-0.6 -0.18,-0.65c-0.1,-0.06 -0.2,-0.4 -0.2,-0.76s-0.08,-0.63 -0.18,-0.63c-0.1,0 -0.18,-0.25 -0.18,-0.56c0,-0.3 -0.1,-0.55 -0.2,-0.55s-0.18,-0.33 -0.18,-0.74c0,-0.4 -0.08,-0.74 -0.2,-0.74c-0.1,0 -0.17,-0.25 -0.17,-0.56c0,-0.3 -0.1,-0.56 -0.2,-0.56s-0.18,-0.33 -0.18,-0.74c0,-0.4 -0.08,-0.75 -0.18,-0.75s-0.2,-0.25 -0.2,-0.56c0,-0.3 -0.08,-0.57 -0.2,-0.57c-0.1,0 -0.17,-0.24 -0.17,-0.54c0,-0.32 -0.1,-0.6 -0.2,-0.68c-0.1,-0.06 -0.18,-0.36 -0.18,-0.66c0,-0.3 -0.08,-0.55 -0.18,-0.55c-0.1,0 -0.2,-0.24 -0.2,-0.55c0,-0.3 -0.07,-0.56 -0.18,-0.56s-0.2,-0.26 -0.2,-0.57c0,-0.3 -0.08,-0.56 -0.18,-0.56s-0.2,-0.25 -0.2,-0.56c0,-0.3 -0.07,-0.54 -0.18,-0.54c-0.1,0 -0.18,-0.26 -0.18,-0.56c0,-0.3 -0.1,-0.56 -0.2,-0.56s-0.18,-0.2 -0.18,-0.46s-0.08,-0.5 -0.18,-0.57c-0.1,-0.05 -0.2,-0.3 -0.2,-0.56c0,-0.25 -0.07,-0.45 -0.18,-0.45c-0.1,0 -0.18,-0.22 -0.18,-0.48s-0.1,-0.46 -0.2,-0.46s-0.18,-0.26 -0.18,-0.56c0,-0.3 -0.08,-0.56 -0.18,-0.56s-0.2,-0.2 -0.2,-0.46c0,-0.25 -0.07,-0.5 -0.18,-0.57s-0.18,-0.3 -0.18,-0.56s-0.1,-0.45 -0.2,-0.45s-0.18,-0.18 -0.18,-0.38s-0.08,-0.4 -0.18,-0.47c-0.1,-0.07 -0.2,-0.28 -0.2,-0.48c0,-0.2 -0.08,-0.36 -0.18,-0.36c-0.1,0 -0.2,-0.16 -0.2,-0.36s-0.07,-0.38 -0.17,-0.38s-0.18,-0.25 -0.18,-0.56c0,-0.3 -0.08,-0.56 -0.2,-0.56s-0.17,-0.2 -0.17,-0.45c0,-0.26 -0.1,-0.52 -0.2,-0.58c-0.1,-0.06 -0.18,-0.28 -0.18,-0.48c0,-0.2 -0.08,-0.36 -0.18,-0.36c-0.12,0 -0.2,-0.17 -0.2,-0.37s-0.08,-0.36 -0.2,-0.36c-0.1,0 -0.17,-0.17 -0.17,-0.38s-0.1,-0.37 -0.2,-0.37s-0.18,-0.18 -0.18,-0.38s-0.08,-0.38 -0.2,-0.38c-0.1,0 -0.17,-0.2 -0.17,-0.45s-0.1,-0.52 -0.2,-0.58c-0.1,-0.06 -0.18,-0.28 -0.18,-0.48c0,-0.2 -0.08,-0.36 -0.18,-0.36s-0.2,-0.17 -0.2,-0.37s-0.07,-0.37 -0.18,-0.37c-0.1,0 -0.18,-0.16 -0.18,-0.37c0,-0.2 -0.1,-0.37 -0.2,-0.37s-0.18,-0.18 -0.18,-0.38s-0.08,-0.38 -0.18,-0.38s-0.2,-0.1 -0.2,-0.26c0,-0.3 -0.77,-1.85 -0.97,-1.94c-0.08,-0.04 -0.14,-0.22 -0.14,-0.42c0,-0.2 -0.1,-0.36 -0.2,-0.36s-0.18,-0.17 -0.18,-0.37c0,-0.22 -0.1,-0.38 -0.2,-0.38s-0.18,-0.12 -0.18,-0.27c0,-0.3 -0.77,-1.85 -0.98,-1.94c-0.07,-0.02 -0.14,-0.2 -0.14,-0.4s-0.08,-0.37 -0.18,-0.37c-0.1,0 -0.2,-0.16 -0.2,-0.37s-0.06,-0.37 -0.15,-0.37c-0.1,0 -0.28,-0.26 -0.4,-0.57c-0.14,-0.3 -0.3,-0.56 -0.4,-0.56c-0.1,0 -0.17,-0.17 -0.17,-0.37s-0.08,-0.38 -0.2,-0.38c-0.1,0 -0.17,-0.16 -0.17,-0.37c0,-0.2 -0.08,-0.37 -0.17,-0.37s-0.28,-0.25 -0.4,-0.56c-0.13,-0.3 -0.3,-0.56 -0.4,-0.56s-0.16,-0.17 -0.16,-0.37s-0.1,-0.4 -0.2,-0.4s-0.18,-0.1 -0.18,-0.23s-0.16,-0.42 -0.37,-0.64c-0.2,-0.22 -0.38,-0.5 -0.38,-0.6c0,-0.2 -0.4,-0.96 -0.57,-1.13c-0.06,-0.05 -0.3,-0.47 -0.56,-0.93c-0.26,-0.46 -0.74,-1.23 -1.07,-1.72c-0.34,-0.5 -0.6,-0.95 -0.6,-1.03s-0.17,-0.27 -0.38,-0.42s-0.37,-0.4 -0.37,-0.55c0,-0.16 -0.17,-0.42 -0.38,-0.56c-0.2,-0.16 -0.37,-0.43 -0.37,-0.6c0,-0.2 -0.08,-0.35 -0.18,-0.35c-0.1,0 -0.2,-0.1 -0.2,-0.24c0,-0.12 -0.16,-0.4 -0.36,-0.64c-0.22,-0.22 -0.4,-0.47 -0.4,-0.56c0,-0.1 -0.24,-0.43 -0.55,-0.75c-0.3,-0.33 -0.56,-0.7 -0.56,-0.83s-0.17,-0.36 -0.38,-0.5c-0.2,-0.16 -0.37,-0.4 -0.37,-0.57s-0.17,-0.4 -0.37,-0.56c-0.2,-0.15 -0.38,-0.4 -0.38,-0.56c0,-0.16 -0.16,-0.42 -0.37,-0.56c-0.2,-0.15 -0.37,-0.37 -0.37,-0.48c0,-0.12 -0.25,-0.48 -0.56,-0.8c-0.3,-0.32 -0.56,-0.68 -0.56,-0.8c0,-0.1 -0.25,-0.43 -0.56,-0.72c-0.3,-0.3 -0.56,-0.62 -0.56,-0.75s-0.25,-0.45 -0.56,-0.74c-0.3,-0.3 -0.56,-0.63 -0.56,-0.76c0,-0.12 -0.25,-0.46 -0.56,-0.74s-0.56,-0.6 -0.56,-0.7c0,-0.1 -0.34,-0.54 -0.74,-0.96c-0.4,-0.42 -0.75,-0.83 -0.75,-0.9c0,-0.1 -0.43,-0.6 -0.94,-1.13c-0.52,-0.53 -0.94,-1.06 -0.94,-1.17c0,-0.1 -0.4,-0.6 -0.93,-1.1c-0.52,-0.5 -0.94,-0.98 -0.94,-1.08c0,-0.1 -0.67,-0.87 -1.5,-1.72c-0.8,-0.86 -1.48,-1.63 -1.48,-1.7c0,-0.1 -1.7,-1.87 -3.78,-3.96l-5.64,-5.73c-1.03,-1.06 -2.37,-2.4 -3,-2.96c-2.25,-2.07 -4.2,-3.8 -4.6,-4.08c-0.23,-0.16 -0.58,-0.45 -0.8,-0.66c-0.53,-0.53 -2.28,-2 -2.76,-2.33c-0.2,-0.14 -0.53,-0.4 -0.7,-0.6c-0.16,-0.18 -0.4,-0.33 -0.52,-0.33c-0.13,0 -0.47,-0.25 -0.76,-0.56c-0.28,-0.3 -0.62,-0.55 -0.74,-0.55s-0.54,-0.33 -0.93,-0.74c-0.4,-0.4 -0.82,-0.74 -0.94,-0.74s-0.44,-0.25 -0.73,-0.56c-0.3,-0.3 -0.62,-0.56 -0.75,-0.56s-0.45,-0.25 -0.74,-0.56c-0.3,-0.3 -0.62,-0.56 -0.75,-0.56c-0.12,0 -0.46,-0.25 -0.74,-0.56c-0.3,-0.3 -0.65,-0.55 -0.8,-0.55s-0.37,-0.16 -0.52,-0.37c-0.14,-0.2 -0.38,-0.37 -0.52,-0.37s-0.5,-0.25 -0.78,-0.56c-0.3,-0.3 -0.64,-0.56 -0.78,-0.56s-0.38,-0.17 -0.53,-0.37c-0.14,-0.2 -0.36,-0.37 -0.47,-0.37c-0.1,0 -0.36,-0.15 -0.56,-0.33c-0.2,-0.18 -0.6,-0.45 -0.88,-0.6c-0.28,-0.14 -0.5,-0.33 -0.5,-0.4s-0.18,-0.17 -0.38,-0.17s-0.38,-0.06 -0.38,-0.15c0,-0.1 -0.23,-0.27 -0.5,-0.42c-0.3,-0.15 -0.68,-0.4 -0.88,-0.6c-0.2,-0.17 -0.43,-0.32 -0.52,-0.32c-0.1,0 -0.34,-0.15 -0.56,-0.36c-0.22,-0.2 -0.5,-0.37 -0.65,-0.37c-0.14,0 -0.25,-0.1 -0.25,-0.2s-0.15,-0.17 -0.33,-0.17c-0.18,0 -0.45,-0.17 -0.6,-0.38c-0.15,-0.2 -0.42,-0.37 -0.6,-0.37c-0.2,0 -0.33,-0.08 -0.33,-0.2c0,-0.1 -0.18,-0.17 -0.4,-0.17s-0.36,-0.1 -0.36,-0.2s-0.15,-0.18 -0.33,-0.18c-0.17,0 -0.44,-0.16 -0.6,-0.37c-0.14,-0.2 -0.4,-0.37 -0.6,-0.37c-0.17,0 -0.32,-0.1 -0.32,-0.2s-0.13,-0.17 -0.3,-0.17c-0.15,0 -0.46,-0.18 -0.68,-0.4c-0.22,-0.2 -0.5,-0.36 -0.64,-0.36s-0.25,-0.08 -0.25,-0.2c0,-0.1 -0.16,-0.17 -0.36,-0.17s-0.37,-0.1 -0.37,-0.2s-0.13,-0.18 -0.3,-0.18c-0.15,0 -0.46,-0.17 -0.68,-0.38c-0.23,-0.2 -0.52,-0.37 -0.65,-0.37c-0.14,0 -0.25,-0.1 -0.25,-0.2s-0.17,-0.17 -0.37,-0.17s-0.37,-0.1 -0.37,-0.2s-0.17,-0.18 -0.38,-0.18s-0.37,-0.08 -0.37,-0.18c0,-0.1 -0.12,-0.2 -0.28,-0.2c-0.15,0 -0.46,-0.16 -0.68,-0.36c-0.22,-0.2 -0.5,-0.38 -0.65,-0.38c-0.14,0 -0.25,-0.08 -0.25,-0.18c0,-0.1 -0.17,-0.2 -0.36,-0.2c-0.2,0 -0.43,-0.07 -0.5,-0.18c-0.05,-0.1 -0.27,-0.18 -0.48,-0.18c-0.2,0 -0.55,-0.17 -0.77,-0.37c-0.22,-0.2 -0.5,-0.38 -0.64,-0.38c-0.12,0 -0.23,-0.1 -0.23,-0.2s-0.17,-0.18 -0.37,-0.18c-0.2,0 -0.4,-0.08 -0.47,-0.2c-0.07,-0.1 -0.32,-0.17 -0.57,-0.17s-0.46,-0.1 -0.46,-0.2s-0.12,-0.18 -0.28,-0.18c-0.15,0 -0.28,-0.08 -0.28,-0.18c0,-0.1 -0.17,-0.2 -0.37,-0.2c-0.2,0 -0.37,-0.08 -0.37,-0.18c0,-0.1 -0.2,-0.2 -0.47,-0.2c-0.26,0 -0.47,-0.07 -0.47,-0.18c0,-0.1 -0.16,-0.18 -0.37,-0.18s-0.38,-0.1 -0.38,-0.2s-0.2,-0.18 -0.47,-0.18c-0.25,0 -0.46,-0.08 -0.46,-0.18c0,-0.1 -0.18,-0.2 -0.4,-0.2c-0.2,0 -0.36,-0.07 -0.36,-0.18c0,-0.1 -0.17,-0.18 -0.37,-0.18c-0.2,0 -0.37,-0.1 -0.37,-0.2s-0.1,-0.17 -0.2,-0.17s-0.57,-0.17 -1.03,-0.38c-1.4,-0.65 -2.36,-1.06 -3.62,-1.6c-0.67,-0.26 -1.36,-0.57 -1.54,-0.66c-0.16,-0.1 -0.48,-0.17 -0.68,-0.17s-0.38,-0.08 -0.38,-0.2c0,-0.1 -0.25,-0.17 -0.56,-0.17c-0.3,0 -0.56,-0.1 -0.56,-0.2s-0.16,-0.18 -0.36,-0.18c-0.2,0 -0.4,-0.08 -0.48,-0.18c-0.06,-0.1 -0.32,-0.2 -0.57,-0.2c-0.24,0 -0.44,-0.07 -0.44,-0.18c0,-0.1 -0.25,-0.18 -0.56,-0.18c-0.3,0 -0.56,-0.07 -0.56,-0.15s-0.43,-0.27 -0.94,-0.4s-1,-0.34 -1.04,-0.42c-0.05,-0.07 -0.3,-0.14 -0.55,-0.14c-0.24,0 -0.44,-0.08 -0.44,-0.2c0,-0.1 -0.25,-0.17 -0.56,-0.17c-0.3,0 -0.56,-0.1 -0.56,-0.2s-0.25,-0.2 -0.56,-0.2c-0.3,0 -0.56,-0.07 -0.56,-0.17s-0.25,-0.2 -0.56,-0.2c-0.3,0 -0.56,-0.07 -0.56,-0.18c0,-0.1 -0.24,-0.18 -0.55,-0.18c-0.3,0 -0.6,-0.1 -0.66,-0.2c-0.07,-0.1 -0.4,-0.17 -0.77,-0.17c-0.35,0 -0.64,-0.1 -0.64,-0.2s-0.26,-0.18 -0.57,-0.18s-0.56,-0.08 -0.56,-0.18c0,-0.1 -0.24,-0.2 -0.54,-0.2c-0.3,0 -0.6,-0.07 -0.67,-0.18c-0.06,-0.1 -0.35,-0.18 -0.65,-0.18c-0.3,0 -0.58,-0.1 -0.64,-0.2c-0.07,-0.1 -0.36,-0.18 -0.65,-0.18c-0.3,0 -0.58,-0.08 -0.65,-0.18c-0.06,-0.1 -0.4,-0.2 -0.74,-0.2c-0.34,0 -0.67,-0.07 -0.74,-0.17c-0.06,-0.1 -0.4,-0.2 -0.75,-0.2s-0.63,-0.08 -0.63,-0.18c0,-0.1 -0.34,-0.18 -0.75,-0.18s-0.75,-0.1 -0.75,-0.2s-0.33,-0.2 -0.73,-0.2s-0.8,-0.07 -0.85,-0.17c-0.07,-0.1 -0.46,-0.2 -0.86,-0.2c-0.4,0 -0.74,-0.07 -0.74,-0.18c0,-0.1 -0.37,-0.18 -0.82,-0.18c-0.46,0 -0.88,-0.1 -0.95,-0.2c-0.06,-0.1 -0.48,-0.18 -0.94,-0.18s-0.84,-0.1 -0.84,-0.2s-0.33,-0.18 -0.73,-0.18s-0.8,-0.08 -0.85,-0.2c-0.06,-0.1 -0.53,-0.17 -1.04,-0.17c-0.5,0 -0.92,-0.1 -0.92,-0.2s-0.4,-0.17 -0.92,-0.17c-0.5,0 -0.97,-0.1 -1.04,-0.2c-0.06,-0.1 -0.56,-0.18 -1.1,-0.18c-0.57,0 -1.07,-0.08 -1.13,-0.18c-0.07,-0.1 -0.66,-0.2 -1.32,-0.2s-1.2,-0.07 -1.2,-0.18c0,-0.1 -0.54,-0.18 -1.28,-0.18c-0.7,0 -1.35,-0.1 -1.4,-0.2c-0.07,-0.1 -0.75,-0.18 -1.5,-0.18s-1.43,-0.08 -1.5,-0.18c-0.06,-0.1 -0.9,-0.2 -1.87,-0.2c-1.05,0 -1.76,-0.06 -1.76,-0.18c0,-0.1 -0.94,-0.18 -2.42,-0.18c-1.4,0 -2.46,-0.08 -2.53,-0.2c-0.16,-0.24 -26.13,-0.24 -26.28,0.02m19.1,10.62c9.2,0.42 14.05,0.9 21.9,2.16c13.02,2.1 29,6.72 39.6,11.48l4.02,1.8c1.37,0.6 9.6,4.73 10.6,5.3c0.42,0.25 1.22,0.7 1.78,1c1.58,0.87 2.27,1.27 3.63,2.1c0.7,0.42 1.3,0.76 1.35,0.76c0.08,0 1.58,0.96 5.47,3.5c10.65,6.98 20.98,15.63 30.2,25.3c2.48,2.6 5.06,5.47 6.45,7.18c0.3,0.36 0.58,0.7 0.64,0.74c0.3,0.25 4.76,5.9 6.04,7.65l1.8,2.42c7,9.4 14.96,23.8 19.78,35.8c1.33,3.27 3.18,8.3 3.83,10.33l0.8,2.52c0.28,0.87 0.6,1.96 0.74,2.42s0.3,1.05 0.38,1.3c0.1,0.26 0.3,0.97 0.47,1.6l0.48,1.76c0.2,0.7 0.38,1.44 0.7,2.75l0.4,1.58c0.4,1.6 0.55,2.3 0.74,3.22l0.35,1.68c0.6,2.8 1.5,7.75 1.9,10.62c1.27,9.07 1.74,15.85 1.74,25.07c0,10.84 -0.76,19.8 -2.53,29.92c-0.43,2.43 -0.74,4.06 -1.1,5.77c-0.1,0.42 -0.2,1 -0.28,1.32c-0.16,0.78 -0.8,3.58 -1.04,4.47l-0.37,1.48c-0.35,1.4 -0.76,2.9 -1.27,4.66c-0.2,0.72 -0.48,1.64 -0.6,2.05l-0.67,2.14l-0.8,2.5c-0.33,1.1 -1.25,3.7 -2.38,6.72c-4.96,13.32 -12.9,28.06 -21.3,39.6c-2.2,3.05 -7.36,9.7 -7.8,10.08c-0.07,0.05 -0.36,0.38 -0.65,0.74c-6.42,7.86 -17.52,18.4 -26.77,25.46c-3.85,2.93 -12.05,8.65 -12.4,8.65c-0.06,0 -0.6,0.32 -1.2,0.72c-1,0.7 -1.33,0.9 -3.13,1.9c-0.38,0.22 -0.78,0.46 -0.89,0.54c-0.18,0.15 -0.87,0.55 -2.6,1.5l-2.15,1.2c-1.53,0.84 -8.86,4.5 -10.34,5.17l-2.16,0.95c-12.15,5.4 -24.3,9.13 -38.67,11.86c-16.6,3.16 -36.75,3.57 -54.06,1.12c-4.77,-0.68 -7.93,-1.24 -12.57,-2.2c-9,-1.9 -23.18,-6.33 -29.4,-9.18c-0.65,-0.3 -1.2,-0.54 -1.26,-0.54c-0.05,0 -0.63,-0.25 -1.3,-0.56c-0.68,-0.3 -1.26,-0.56 -1.3,-0.56c-0.1,0 -3.65,-1.65 -6.1,-2.85c-2.37,-1.14 -2.33,-1 -0.83,-3.27c4.2,-6.4 6.9,-12.66 8.5,-19.7c0.57,-2.47 0.78,-3.8 1.1,-6.7c0.5,-4.46 0.34,-11.8 -0.34,-15.47l-0.4,-2.15c-0.2,-1.03 -0.63,-2.84 -1.28,-5.3c-0.2,-0.72 -1.1,-3.43 -1.3,-3.92c-0.1,-0.2 -0.27,-0.67 -0.4,-1.03c-4.1,-11.2 -13.86,-22.6 -25,-29.17c-1.6,-0.94 -8,-4 -8.35,-4c-0.1,0 -0.34,-0.1 -0.5,-0.2c-0.64,-0.33 -3.88,-1.36 -6.58,-2.06c-1.4,-0.36 -4.36,-0.9 -7.1,-1.32c-2.14,-0.33 -11.66,-0.32 -13.8,0c-3.24,0.5 -4,0.6 -4.74,0.78c-0.4,0.1 -1.2,0.26 -1.77,0.38c-0.58,0.12 -1.25,0.3 -1.5,0.36l-1.3,0.38c-4.95,1.4 -12.1,4.63 -15.34,6.92c-0.68,0.5 -0.7,0.46 -1.64,-1.7c-11.73,-27.14 -16.15,-58.9 -12.36,-88.92c0.55,-4.38 0.64,-4.98 1.55,-10.15c2.55,-14.47 7.8,-30.26 14.84,-44.55c2.04,-4.14 3.06,-6.07 5.1,-9.65l0.8,-1.4c0.2,-0.38 0.54,-0.92 0.74,-1.2s0.35,-0.53 0.35,-0.58c0,-0.14 2.42,-3.95 4.3,-6.8c9.6,-14.35 22.23,-28.14 35.5,-38.7l2.35,-1.87c0.17,-0.14 1.14,-0.87 2.15,-1.6c1,-0.76 2.12,-1.58 2.47,-1.84c1.76,-1.3 4.33,-3.05 8.12,-5.5c1.58,-1.04 5.57,-3.46 7,-4.25l1.57,-0.9c3,-1.73 13.73,-7.08 14.17,-7.08c0.04,0 0.52,-0.2 1.06,-0.45c11.35,-5.12 26.87,-9.73 39.94,-11.84l2.33,-0.4c0.95,-0.15 1.88,-0.27 5.54,-0.73c8.54,-1.06 18.47,-1.48 26.33,-1.12m49.02,144.4c-0.7,0.1 -1.88,1 -2.32,1.73l-0.4,0.66l0,52.97l0.52,0.67c1.94,2.54 5.65,1.94 6.43,-1.04c0.34,-1.26 0.34,-51.26 0,-52.38c-0.3,-1.02 -1.52,-2.27 -2.47,-2.53c-0.75,-0.2 -0.92,-0.2 -1.77,-0.07m-121.26,0.27c-3.3,1.8 -3.98,5.32 -1.46,7.7c2.67,2.5 7.24,0.74 7.66,-2.98c0.35,-3.05 -3.66,-6.1 -6.2,-4.72m-52.8,14.44c-2.48,0.88 -3.2,4 -1.36,5.84c1.32,1.32 1.1,1.3 13.8,1.3c6.16,0 11.2,0.06 11.2,0.14c0,0.12 -1.66,2.1 -4.55,5.45l-2.35,2.8c-1.08,1.28 -2,2.37 -2.06,2.42l-1.12,1.3c-0.56,0.67 -1.12,1.32 -1.25,1.46l-2.05,2.44c-1,1.2 -1.86,2.22 -1.92,2.27c-0.1,0.1 -0.7,0.8 -4.37,5.13c-0.7,0.85 -2.13,2.52 -3.16,3.72c-2.82,3.3 -3.12,3.74 -3.22,4.75c-0.17,1.73 1.2,3.6 2.8,3.83c1.9,0.27 32.46,0.02 32.94,-0.27c2.9,-1.78 2.43,-5.66 -0.8,-6.62c-0.8,-0.23 -2.73,-0.28 -12.1,-0.28c-6.12,0 -11.14,-0.07 -11.14,-0.16c0,-0.1 0.32,-0.53 0.7,-0.98c0.4,-0.45 1.43,-1.66 2.3,-2.68c0.85,-1.03 1.64,-1.96 1.75,-2.07l2.52,-2.97c1.27,-1.52 3.36,-3.98 4.63,-5.48l3.1,-3.65l7.82,-9.2c1.34,-1.58 2.6,-3.17 2.8,-3.54c0.97,-1.85 -0.14,-4.35 -2.22,-4.97c-1.4,-0.4 -31.5,-0.38 -32.68,0.03m53.4,-0.06c-0.75,0.24 -1.9,1.23 -2.3,2.02c-0.5,0.95 -0.38,38.2 0.12,39.08c1.35,2.38 4.88,2.45 6.24,0.13l0.47,-0.8l0,-37.95l-0.45,-0.76c-0.9,-1.56 -2.47,-2.22 -4.06,-1.72m25.7,0c-1,0.3 -1.97,1.16 -2.38,2.05c-0.54,1.18 -0.54,37.6 0,38.8c0.97,2.14 3.8,2.78 5.6,1.27c1.15,-0.97 1.13,-0.72 1.13,-10.9c0,-14.08 0.44,-16.27 4,-20.05c2.5,-2.7 4.43,-3.66 7.85,-3.97c4.17,-0.36 5.93,-3.67 3.35,-6.26c-2.2,-2.2 -9.3,-0.8 -13.62,2.68c-1.35,1.1 -1.57,1.05 -1.57,-0.25c0,-2.34 -2.2,-4.07 -4.33,-3.4m53.17,0.03c-18.64,2.47 -25.17,26.55 -10.4,38.38c9.38,7.53 23.7,5.5 30.1,-4.25c1.55,-2.35 0.2,-5.4 -2.5,-5.66c-1.45,-0.14 -2.38,0.37 -3.83,2.12c-5.53,6.66 -14.88,7.03 -20.78,0.82c-7.56,-7.96 -3.8,-21.16 6.82,-23.98c1.16,-0.3 5.18,-0.35 6.3,-0.07c3.37,0.86 5.3,2.08 7.67,4.87c1.54,1.8 2.1,2.12 3.62,2.12c2.57,0 4.3,-3.1 2.95,-5.3c-3.93,-6.44 -12,-10.1 -19.93,-9.06m83.88,-0.07c-19.98,2.6 -26.53,26.86 -10.53,38.97c8.16,6.2 21.88,5.18 29.14,-2.15c2.18,-2.2 2.57,-3.72 1.4,-5.4c-1.58,-2.22 -3.75,-2.14 -6.32,0.24c-6.6,6.1 -17.4,5.52 -22.94,-1.25c-0.93,-1.13 -2.5,-4.2 -2.5,-4.87l0,-0.4l16.3,0c16.27,0 16.32,0 17.16,-0.4c1.96,-0.9 2.4,-2.4 1.86,-6.1c-1.75,-11.6 -12.48,-20.1 -23.58,-18.64m5.68,7.53c3.52,0.9 6.68,3.18 8.64,6.24c0.83,1.3 1.77,3.5 1.64,3.83c-0.15,0.37 -27.7,0.4 -27.7,0.03c0,-1.06 1.67,-4.14 3.08,-5.7c3.6,-3.96 9.27,-5.7 14.34,-4.4m-222.9,77.41c1.65,0.2 2.67,0.36 4.77,0.77c0.9,0.18 1.58,0.35 3.63,0.9c0.73,0.18 3.43,1.08 3.97,1.3l0.83,0.35c1.04,0.4 5.35,2.56 6.05,3.04c0.44,0.3 0.84,0.52 0.9,0.52c0.1,0 1.38,0.87 2.7,1.85c17.23,12.63 23.83,34.92 16.23,54.83c-0.2,0.56 -0.48,1.27 -0.6,1.56c-8.33,21.6 -34.6,33.6 -57.47,26.25c-14.63,-4.7 -26.97,-17.5 -30.67,-31.83c-0.1,-0.3 -0.27,-1.02 -0.42,-1.58c-1.68,-6.37 -1.8,-13.66 -0.34,-20.97c2.5,-12.5 11.16,-24.5 22.3,-30.86c1.3,-0.74 4.06,-2.13 4.93,-2.47c0.46,-0.2 1.1,-0.45 1.4,-0.6c0.97,-0.42 4.54,-1.56 6.1,-1.92c2.25,-0.52 3.54,-0.74 6.4,-1.1c1.87,-0.24 7.3,-0.25 9.3,-0.02" fill="black"/>
</svg>